<svg version="1.1" xmlns="http://www.w3.org/2000/svg" xmlns:xlink="http://www.w3.org/1999/xlink" width="384.97" height="384.97" viewBox="0,0,384.97,384.97"><g transform="translate(-47.515,12.485)"><g data-paper-data="{&quot;isPaintingLayer&quot;:true}" fill-rule="nonzero" stroke="none" stroke-width="1" stroke-linecap="butt" stroke-linejoin="miter" stroke-miterlimit="10" stroke-dasharray="" stroke-dashoffset="0" style="mix-blend-mode: normal"><g><g fill="#f9f6ff"><path d="M432.485,180c0,106.3 -86.185,192.485 -192.485,192.485c-106.312,0 -192.485,-86.173 -192.485,-192.485c0,-106.312 86.173,-192.485 192.485,-192.485c106.3,0 192.485,86.173 192.485,192.485zM408.424,180c0,-93.018 -75.406,-168.424 -168.424,-168.424c-93.018,0 -168.424,75.406 -168.424,168.424c0,93.018 75.406,168.424 168.424,168.424c93.018,0 168.424,-75.406 168.424,-168.424z"/><path d="M345.011,112.546c4.74,4.692 4.74,12.319 0,17.011l-132.321,131.118c-4.872,4.824 -12.247,4.343 -17.179,0l-60.139,-58.936c-4.752,-4.692 -4.752,-12.307 0,-17.011c4.74,-4.704 12.439,-4.704 17.179,0l51.502,50.479l123.768,-122.661c4.752,-4.692 12.439,-4.692 17.19,0z"/></g><g fill="#000000" font-family="&quot;Helvetica Neue&quot;, Helvetica, Arial, sans-serif" font-weight="400" font-size="16" text-anchor="start"/><g fill="#000000" font-family="&quot;Helvetica Neue&quot;, Helvetica, Arial, sans-serif" font-weight="400" font-size="16" text-anchor="start"/><g fill="#000000" font-family="&quot;Helvetica Neue&quot;, Helvetica, Arial, sans-serif" font-weight="400" font-size="16" text-anchor="start"/><g fill="#000000" font-family="&quot;Helvetica Neue&quot;, Helvetica, Arial, sans-serif" font-weight="400" font-size="16" text-anchor="start"/><g fill="#000000" font-family="&quot;Helvetica Neue&quot;, Helvetica, Arial, sans-serif" font-weight="400" font-size="16" text-anchor="start"/><g fill="#000000" font-family="&quot;Helvetica Neue&quot;, Helvetica, Arial, sans-serif" font-weight="400" font-size="16" text-anchor="start"/></g><g fill="#000000" font-family="&quot;Helvetica Neue&quot;, Helvetica, Arial, sans-serif" font-weight="400" font-size="16" text-anchor="start"/></g></g></svg>